<svg xmlns="http://www.w3.org/2000/svg" xmlns:xlink="http://www.w3.org/1999/xlink" viewBox="0 0 262.54 187.08"><defs><style>.cls-1{fill:none;}.cls-2{fill:#f95428;}.cls-3{fill:#9ad14b;}.cls-4{fill:#e54728;}.cls-5{fill:#8bb73d;}.cls-6{fill:#f7b239;}.cls-7{fill:#e09b2d;}.cls-8{fill:#b27214;}.cls-9{fill:#f4de3b;}.cls-10{fill:#995e10;}.cls-11{fill:#fab900;}.cls-12{fill:#fdeb08;}.cls-13{fill:#e09a0a;}.cls-14{fill:#f8b700;}.cls-15{clip-path:url(#clip-path);}.cls-16{fill:#d32500;}.cls-17{fill:#f55e30;}.cls-18{fill:#fac84d;}</style><clipPath id="clip-path"><rect class="cls-1" x="148" y="31.49" width="117.6" height="158.27"/></clipPath></defs><title>food</title><g id="Layer_2" data-name="Layer 2"><g id="Layer_1-2" data-name="Layer 1"><rect class="cls-2" x="16.82" y="91.77" width="141.98" height="39.87"/><rect class="cls-3" x="16.82" y="43.53" width="141.98" height="38.91"/><rect class="cls-4" x="16.82" y="99.61" width="13.25" height="24.18"/><rect class="cls-5" x="16.82" y="49.66" width="13.25" height="25.46"/><path class="cls-6" d="M160.1,152a7.24,7.24,0,0,1,7.24,7.23v8.82a19,19,0,0,1-19,19H26.42a19,19,0,0,1-19-19v-8.82A7.23,7.23,0,0,1,14.65,152H16l69.82-16.24,73,16.24Zm0,0"/><path class="cls-7" d="M51.29,168.07v-8.82A7.23,7.23,0,0,1,58.52,152H14.65a7.23,7.23,0,0,0-7.23,7.23v8.82a19,19,0,0,0,19,19H70.29a19,19,0,0,1-19-19Zm0,0"/><path class="cls-6" d="M167.34,47.34a7.24,7.24,0,0,1-7.24,7.23H14.65a7.23,7.23,0,0,1-7.23-7.23A47.34,47.34,0,0,1,54.75,0H120a47.34,47.34,0,0,1,47.34,47.34Zm0,0"/><path class="cls-7" d="M44.24,47.34A47.34,47.34,0,0,1,91.58,0H54.75A47.34,47.34,0,0,0,7.42,47.34a7.23,7.23,0,0,0,7.23,7.23H51.48a7.23,7.23,0,0,1-7.23-7.23Zm0,0"/><path class="cls-8" d="M158.8,120.11a16,16,0,1,1,0,31.9H16a16,16,0,1,1,0-31.9Zm0,0"/><path class="cls-9" d="M141.59,120.11l-19.27,20.34L102,120.11Zm0,0"/><path class="cls-8" d="M158.8,71.39a16,16,0,1,1,0,31.9H16a16,16,0,1,1,0-31.9Zm0,0"/><path class="cls-9" d="M79.3,71.39,60,91.73,39.7,71.39Zm0,0"/><path class="cls-10" d="M34.1,136.06a16,16,0,0,1,16-16H16A16,16,0,0,0,16,152h34.1a16,16,0,0,1-16-16Zm0,0"/><path class="cls-10" d="M34.1,87.34a15.94,15.94,0,0,1,7.82-13.72L39.7,71.39H16a16,16,0,0,0,0,31.9h34.1a16,16,0,0,1-16-16Zm0,0"/><path class="cls-9" d="M55.66,14.71a3.6,3.6,0,1,1-3.6-3.6,3.6,3.6,0,0,1,3.6,3.6Zm0,0"/><path class="cls-9" d="M126.29,14.71a3.6,3.6,0,1,1-3.6-3.6,3.6,3.6,0,0,1,3.6,3.6Zm0,0"/><path class="cls-9" d="M79.21,14.71a3.6,3.6,0,1,1-3.6-3.6,3.6,3.6,0,0,1,3.6,3.6Zm0,0"/><path class="cls-9" d="M102.75,14.71a3.6,3.6,0,1,1-3.6-3.6,3.6,3.6,0,0,1,3.6,3.6Zm0,0"/><path class="cls-11" d="M205.25,104.37a32.89,32.89,0,0,0,7.48-1v-69H198v69a32.29,32.29,0,0,0,7.25.92Zm0,0"/><path class="cls-12" d="M227.47,96.87V49.18H212.73v53c5-1.18,10.32-2.26,14.74-5.35Zm0,0"/><path class="cls-13" d="M234,90.64a15.23,15.23,0,0,1,8.2-5.78V61H227.47V96.34c2.58-1.81,4.85-3.35,6.54-5.7Zm0,0"/><path class="cls-12" d="M246.28,84.26h8.42a7.65,7.65,0,0,1,2.24.36V69.82H242.21v15a14.79,14.79,0,0,1,4.07-.59Zm0,0"/><path class="cls-12" d="M198,102.22v-53H183.26V97c4.45,3.07,9.77,4.06,14.74,5.21Zm0,0"/><path class="cls-14" d="M176.53,90.64c1.73,2.4,4.07,3.86,6.73,5.7V61H168.52V84.91a15.28,15.28,0,0,1,8,5.73Zm0,0"/><g class="cls-15"><path class="cls-12" d="M155.82,84.26h8.43a14.66,14.66,0,0,1,4.27.65V69.82H153.79V84.54a8.54,8.54,0,0,1,2-.28Zm0,0"/><path class="cls-16" d="M246.28,82.78a14.91,14.91,0,0,0-12.21,6.27c-6.07,8.59-19.89,13.85-28.82,13.85s-22.74-5.25-28.8-13.85a15,15,0,0,0-12.21-6.27h-8.43c-4.89,0-7.81,4.29-7.81,9.24v.5a256,256,0,0,0,14.22,84.78l.66,1.92a11.2,11.2,0,0,0,9.87,7h65a10.67,10.67,0,0,0,10.54-8.92,249.36,249.36,0,0,0,14.22-84.84V92c0-5-2.92-9.24-7.81-9.24Zm0,0"/></g><path class="cls-17" d="M254.7,98.68h-8.42A14.9,14.9,0,0,0,234.08,105c-6.07,8.59-19.89,13.84-28.82,13.84s-22.72-5.25-28.8-13.84a14.9,14.9,0,0,0-12.21-6.28h-8.43c-4,0-6.65,2.88-7.5,6.62a255.8,255.8,0,0,0,13.9,72s25.5-5.81,43.15-5.81,42.84,6.45,42.95,5.81a249.26,249.26,0,0,0,13.93-71.84c-.81-3.81-3.47-6.78-7.54-6.78Zm0,0"/><path class="cls-18" d="M227.47,145c0,8.15-9.24,14.74-20.63,14.74s-20.62-6.59-20.62-14.74,9.24-14.74,20.62-14.74,20.63,6.59,20.63,14.74Zm0,0"/></g></g></svg>