<svg xmlns="http://www.w3.org/2000/svg" viewBox="0 0 661.4 708.07"><defs><style>.cls-1{fill:#f95428;}.cls-2{fill:#9ad14b;}.cls-3{fill:#e54728;}.cls-4{fill:#8bb73d;}.cls-5{fill:#f7b239;}.cls-6{fill:#e09b2d;}.cls-7{fill:#b27214;}.cls-8{fill:#f4de3b;}.cls-9{fill:#995e10;}</style></defs><title>hamburger</title><g id="Layer_2" data-name="Layer 2"><g id="Layer_1-2" data-name="Layer 1"><rect class="cls-1" x="63.66" y="347.32" width="537.36" height="150.92"/><rect class="cls-2" x="63.66" y="164.75" width="537.36" height="147.28"/><rect class="cls-3" x="63.66" y="377.02" width="50.14" height="91.52"/><rect class="cls-4" x="63.66" y="187.95" width="50.14" height="96.37"/><path class="cls-5" d="M606,575.35a27.39,27.39,0,0,1,27.4,27.38v33.39a72,72,0,0,1-71.95,71.94H100a71.94,71.94,0,0,1-71.94-71.94V602.74a27.37,27.37,0,0,1,27.38-27.38h4.93L324.65,513.9,601,575.35Zm0,0"/><path class="cls-6" d="M194.11,636.13V602.74a27.37,27.37,0,0,1,27.38-27.38h-166a27.38,27.38,0,0,0-27.38,27.38v33.39A71.94,71.94,0,0,0,100,708.07H266a71.94,71.94,0,0,1-71.94-71.94Zm0,0"/><path class="cls-5" d="M633.35,179.18A27.38,27.38,0,0,1,606,206.56H55.45a27.37,27.37,0,0,1-27.38-27.38C28.07,80.23,108.28,0,207.23,0H454.17A179.19,179.19,0,0,1,633.35,179.18Zm0,0"/><path class="cls-6" d="M167.45,179.18C167.45,80.23,247.66,0,346.61,0H207.23c-99,0-179.16,80.23-179.16,179.18a27.37,27.37,0,0,0,27.38,27.38H194.83a27.38,27.38,0,0,1-27.38-27.38Zm0,0"/><path class="cls-7" d="M601,454.6a60.38,60.38,0,1,1,0,120.75H60.38a60.38,60.38,0,1,1,0-120.75Zm0,0"/><path class="cls-8" d="M535.91,454.6,463,531.6l-77-77Zm0,0"/><path class="cls-7" d="M601,270.21A60.38,60.38,0,1,1,601,391H60.38a60.38,60.38,0,1,1,0-120.75Zm0,0"/><path class="cls-8" d="M300.15,270.21l-72.9,77-77-77Zm0,0"/><path class="cls-9" d="M129.08,515a60.38,60.38,0,0,1,60.38-60.37H60.38a60.38,60.38,0,0,0,0,120.75H189.45A60.39,60.39,0,0,1,129.08,515Zm0,0"/><path class="cls-9" d="M129.08,330.58a60.33,60.33,0,0,1,29.61-51.95l-8.43-8.43H60.38a60.38,60.38,0,0,0,0,120.75H189.45a60.39,60.39,0,0,1-60.38-60.38Zm0,0"/><path class="cls-8" d="M210.68,55.67A13.63,13.63,0,1,1,197,42a13.63,13.63,0,0,1,13.63,13.64Zm0,0"/><path class="cls-8" d="M478,55.67A13.64,13.64,0,1,1,464.36,42,13.63,13.63,0,0,1,478,55.67Zm0,0"/><path class="cls-8" d="M299.79,55.67A13.63,13.63,0,1,1,286.16,42a13.63,13.63,0,0,1,13.63,13.64Zm0,0"/><path class="cls-8" d="M388.89,55.67A13.63,13.63,0,1,1,375.26,42a13.63,13.63,0,0,1,13.63,13.64Zm0,0"/></g></g></svg>