<svg xmlns="http://www.w3.org/2000/svg" xmlns:xlink="http://www.w3.org/1999/xlink" viewBox="0 0 433.5 574.48"><defs><style>.cls-1{fill:none;}.cls-2{fill:#fab900;}.cls-3{fill:#fdeb08;}.cls-4{fill:#e09a0a;}.cls-5{fill:#f8b700;}.cls-6{clip-path:url(#clip-path);}.cls-7{fill:#d32500;}.cls-8{fill:#f55e30;}.cls-9{fill:#fac84d;}</style><clipPath id="clip-path" transform="translate(0 -11.16)"><rect class="cls-1" width="445.1" height="599.04"/></clipPath></defs><title>pommes</title><g id="Layer_2" data-name="Layer 2"><g id="Layer_1-2" data-name="Layer 1"><path class="cls-2" d="M216.68,275.81A124.5,124.5,0,0,0,245,272.18v-261H189.22V272.33a122.23,122.23,0,0,0,27.46,3.49Zm0,0" transform="translate(0 -11.16)"/><path class="cls-3" d="M300.78,247.44V66.93H245V267.7c18.85-4.46,39.06-8.55,55.78-20.26Zm0,0" transform="translate(0 -11.16)"/><path class="cls-4" d="M325.51,223.86a57.64,57.64,0,0,1,31-21.89V111.54H300.78V245.43c9.76-6.86,18.36-12.69,24.74-21.57Zm0,0" transform="translate(0 -11.16)"/><path class="cls-3" d="M372,199.72h31.86a29,29,0,0,1,8.49,1.37V145H356.55V202A56,56,0,0,1,372,199.72Zm0,0" transform="translate(0 -11.16)"/><path class="cls-3" d="M189.22,267.7V66.93H133.45V248c16.83,11.6,37,15.37,55.78,19.72Zm0,0" transform="translate(0 -11.16)"/><path class="cls-5" d="M108,223.86c6.54,9.09,15.42,14.6,25.49,21.57V111.54H77.67v90.64A57.83,57.83,0,0,1,108,223.86Zm0,0" transform="translate(0 -11.16)"/><g class="cls-6"><path class="cls-3" d="M29.58,199.72H61.5a55.5,55.5,0,0,1,16.18,2.45V145H21.9v55.72a32.32,32.32,0,0,1,7.68-1Zm0,0" transform="translate(0 -11.16)"/><path class="cls-7" d="M372,194.12a56.44,56.44,0,0,0-46.2,23.75c-23,32.52-75.27,52.4-109.1,52.4s-86.06-19.88-109-52.4a56.59,56.59,0,0,0-46.2-23.75H29.58c-18.52,0-29.58,16.23-29.58,35V231A968.72,968.72,0,0,0,53.81,551.87l2.51,7.25c5.06,14.6,21.89,26.52,37.37,26.52H339.78a40.38,40.38,0,0,0,39.88-33.77,943.78,943.78,0,0,0,53.81-321.09v-1.69c0-18.74-11.06-35-29.58-35Zm0,0" transform="translate(0 -11.16)"/></g><path class="cls-8" d="M403.84,254.3H372a56.41,56.41,0,0,0-46.2,23.76c-23,32.52-75.27,52.39-109.1,52.39s-86-19.87-109-52.39A56.41,56.41,0,0,0,61.5,254.3H29.58c-15.14,0-25.17,10.9-28.38,25.06A968.17,968.17,0,0,0,53.81,551.87s96.52-22,163.3-22,162.16,24.4,162.55,22A943.43,943.43,0,0,0,432.38,280c-3.05-14.43-13.13-25.66-28.54-25.66Zm0,0" transform="translate(0 -11.16)"/><path class="cls-9" d="M300.78,429.48c0,30.83-35,55.78-78.1,55.78s-78.06-24.95-78.06-55.78,35-55.78,78.06-55.78,78.1,24.95,78.1,55.78Zm0,0" transform="translate(0 -11.16)"/></g></g></svg>